<svg width="1024" height="1024" viewBox="0 0 1024 1024" fill="none" xmlns="http://www.w3.org/2000/svg">
<path d="M515.456 0.00877678L509.718 0L506.37 0.440741L500.797 1.96218L176.643 163.914L171.956 167.162L167.775 171.361L167.575 171.606C166.043 173.471 164.692 175.527 163.564 177.761L162.729 179.538L161.301 183.445L160.098 189.754L160 804.509C160 816.335 166.28 827.27 176.496 833.23L495.68 1019.42C517.924 1032.4 545.839 1016.24 545.68 990.492L543.799 690.856L846.313 541.747C870.967 529.597 871.068 494.479 846.483 482.187L586.777 352.333L846.483 222.481C870.989 210.227 870.989 175.258 846.483 163.004L527.063 3.2945L522.315 1.37515L515.456 0.00877678ZM226.497 565.867L477.295 692.277L478.816 932.6L226.497 785.414V565.867ZM479.114 618.689L267.533 512.127L478.827 407.155L479.114 618.689ZM756.841 511.712L545.611 615.779L545.273 405.927L756.841 511.712ZM226.497 458.217V246.745L437.679 353.349L226.497 458.217ZM478.827 299.567L267.379 192.877L479.114 87.0075L478.827 299.567ZM545.27 298.692L545.611 86.8862L757.269 192.741L545.27 298.692Z" fill="#212121"/>
</svg>
